<mxfile host="app.diagrams.net" agent="Mozilla/5.0 (Windows NT 10.0; Win64; x64) AppleWebKit/537.36 (KHTML, like Gecko) Chrome/136.0.0.0 Safari/537.36" version="27.0.1">
  <diagram name="Page-1" id="4i3c1M-MeT_ycXrChDrC">
    <mxGraphModel grid="0" page="0" gridSize="10" guides="1" tooltips="1" connect="1" arrows="1" fold="1" pageScale="1" pageWidth="850" pageHeight="1100" math="0" shadow="0">
      <root>
        <mxCell id="0" />
        <mxCell id="1" parent="0" />
        <mxCell id="cdov_U2zmaKujMethuNc-10" value="" style="endArrow=classic;html=1;rounded=0;fontSize=12;startSize=8;endSize=8;curved=1;entryX=0.5;entryY=0;entryDx=0;entryDy=0;exitX=0.5;exitY=1;exitDx=0;exitDy=0;" edge="1" parent="1" source="Jpr0yWLcm52v4dB1H-6q-7" target="Jpr0yWLcm52v4dB1H-6q-1">
          <mxGeometry width="50" height="50" relative="1" as="geometry">
            <mxPoint x="274" y="-5" as="sourcePoint" />
            <mxPoint x="134.5" y="100.5" as="targetPoint" />
          </mxGeometry>
        </mxCell>
        <mxCell id="cdov_U2zmaKujMethuNc-13" value="" style="swimlane;startSize=0;" vertex="1" parent="1">
          <mxGeometry x="-115.5" y="176" width="785" height="369" as="geometry">
            <mxRectangle x="-32" y="176" width="50" height="44" as="alternateBounds" />
          </mxGeometry>
        </mxCell>
        <mxCell id="cdov_U2zmaKujMethuNc-14" value="Application service" style="text;html=1;align=center;verticalAlign=middle;resizable=0;points=[];autosize=1;strokeColor=none;fillColor=none;fontSize=16;" vertex="1" parent="cdov_U2zmaKujMethuNc-13">
          <mxGeometry x="13" width="151" height="31" as="geometry" />
        </mxCell>
        <mxCell id="cdov_U2zmaKujMethuNc-16" value="Project manager" style="rounded=1;whiteSpace=wrap;html=1;" vertex="1" parent="cdov_U2zmaKujMethuNc-13">
          <mxGeometry x="189" y="34" width="120" height="60" as="geometry" />
        </mxCell>
        <mxCell id="cdov_U2zmaKujMethuNc-17" value="Business Logic Analyzer" style="rounded=1;whiteSpace=wrap;html=1;" vertex="1" parent="cdov_U2zmaKujMethuNc-13">
          <mxGeometry x="412" y="34" width="120" height="60" as="geometry" />
        </mxCell>
        <mxCell id="cdov_U2zmaKujMethuNc-18" value="" style="html=1;verticalAlign=bottom;labelBackgroundColor=none;endArrow=open;endFill=0;dashed=1;rounded=0;fontSize=12;startSize=8;endSize=8;curved=1;exitX=0.5;exitY=1;exitDx=0;exitDy=0;entryX=0.5;entryY=0;entryDx=0;entryDy=0;" edge="1" parent="cdov_U2zmaKujMethuNc-13" source="cdov_U2zmaKujMethuNc-16" target="cdov_U2zmaKujMethuNc-19">
          <mxGeometry x="0.6293" y="-14" width="160" relative="1" as="geometry">
            <mxPoint x="223" y="158" as="sourcePoint" />
            <mxPoint x="383" y="158" as="targetPoint" />
            <mxPoint as="offset" />
          </mxGeometry>
        </mxCell>
        <mxCell id="cdov_U2zmaKujMethuNc-19" value="Validator" style="rounded=1;whiteSpace=wrap;html=1;" vertex="1" parent="cdov_U2zmaKujMethuNc-13">
          <mxGeometry x="210" y="144" width="81" height="60" as="geometry" />
        </mxCell>
        <mxCell id="cdov_U2zmaKujMethuNc-22" value="Test Generator" style="rounded=1;whiteSpace=wrap;html=1;" vertex="1" parent="cdov_U2zmaKujMethuNc-13">
          <mxGeometry x="632" y="31" width="120" height="60" as="geometry" />
        </mxCell>
        <mxCell id="VGIuuGwOw9M5fxao_XQ2-1" value="LLM" style="rounded=1;whiteSpace=wrap;html=1;" vertex="1" parent="cdov_U2zmaKujMethuNc-13">
          <mxGeometry x="674" y="133" width="82" height="48" as="geometry" />
        </mxCell>
        <mxCell id="VGIuuGwOw9M5fxao_XQ2-2" value="" style="endArrow=open;endSize=12;dashed=1;html=1;rounded=0;exitX=0.5;exitY=1;exitDx=0;exitDy=0;entryX=0.5;entryY=0;entryDx=0;entryDy=0;" edge="1" parent="cdov_U2zmaKujMethuNc-13" source="cdov_U2zmaKujMethuNc-22" target="VGIuuGwOw9M5fxao_XQ2-1">
          <mxGeometry x="0.0275" y="12" width="160" relative="1" as="geometry">
            <mxPoint x="425" y="200" as="sourcePoint" />
            <mxPoint x="585" y="200" as="targetPoint" />
            <mxPoint as="offset" />
          </mxGeometry>
        </mxCell>
        <mxCell id="VGIuuGwOw9M5fxao_XQ2-3" value="Test technique vector store" style="rounded=1;whiteSpace=wrap;html=1;" vertex="1" parent="cdov_U2zmaKujMethuNc-13">
          <mxGeometry x="554" y="241" width="120" height="60" as="geometry" />
        </mxCell>
        <mxCell id="VGIuuGwOw9M5fxao_XQ2-4" value="" style="endArrow=open;endSize=12;dashed=1;html=1;rounded=0;exitX=0;exitY=0.5;exitDx=0;exitDy=0;entryX=0.5;entryY=0;entryDx=0;entryDy=0;" edge="1" parent="cdov_U2zmaKujMethuNc-13" source="VGIuuGwOw9M5fxao_XQ2-1">
          <mxGeometry x="0.0275" y="12" width="160" relative="1" as="geometry">
            <mxPoint x="559" y="140" as="sourcePoint" />
            <mxPoint x="609.9999999999998" y="240" as="targetPoint" />
            <mxPoint as="offset" />
          </mxGeometry>
        </mxCell>
        <mxCell id="lMJsI6JxSjtZq9SAjWNh-3" value="LLM" style="rounded=1;whiteSpace=wrap;html=1;" vertex="1" parent="cdov_U2zmaKujMethuNc-13">
          <mxGeometry x="370" y="174" width="82" height="48" as="geometry" />
        </mxCell>
        <mxCell id="lMJsI6JxSjtZq9SAjWNh-4" value="Syntax vector store" style="rounded=1;whiteSpace=wrap;html=1;" vertex="1" parent="cdov_U2zmaKujMethuNc-13">
          <mxGeometry x="242" y="258" width="120" height="60" as="geometry" />
        </mxCell>
        <mxCell id="lMJsI6JxSjtZq9SAjWNh-5" value="" style="endArrow=open;endSize=12;dashed=1;html=1;rounded=0;exitX=0;exitY=0.5;exitDx=0;exitDy=0;entryX=0.5;entryY=0;entryDx=0;entryDy=0;" edge="1" parent="cdov_U2zmaKujMethuNc-13" source="lMJsI6JxSjtZq9SAjWNh-3" target="lMJsI6JxSjtZq9SAjWNh-4">
          <mxGeometry x="0.0275" y="12" width="160" relative="1" as="geometry">
            <mxPoint x="318" y="143" as="sourcePoint" />
            <mxPoint x="341" y="185" as="targetPoint" />
            <mxPoint as="offset" />
          </mxGeometry>
        </mxCell>
        <mxCell id="lMJsI6JxSjtZq9SAjWNh-6" value="" style="endArrow=open;endSize=12;dashed=1;html=1;rounded=0;exitX=0.5;exitY=1;exitDx=0;exitDy=0;entryX=0.5;entryY=0;entryDx=0;entryDy=0;" edge="1" parent="cdov_U2zmaKujMethuNc-13" source="cdov_U2zmaKujMethuNc-17" target="lMJsI6JxSjtZq9SAjWNh-3">
          <mxGeometry x="0.0275" y="12" width="160" relative="1" as="geometry">
            <mxPoint x="469" y="106" as="sourcePoint" />
            <mxPoint x="492" y="148" as="targetPoint" />
            <mxPoint as="offset" />
          </mxGeometry>
        </mxCell>
        <mxCell id="lMJsI6JxSjtZq9SAjWNh-7" value="Framework anayzer" style="rounded=1;whiteSpace=wrap;html=1;" vertex="1" parent="cdov_U2zmaKujMethuNc-13">
          <mxGeometry x="492" y="127" width="81" height="60" as="geometry" />
        </mxCell>
        <mxCell id="lMJsI6JxSjtZq9SAjWNh-8" value="" style="html=1;verticalAlign=bottom;labelBackgroundColor=none;endArrow=open;endFill=0;dashed=1;rounded=0;fontSize=12;startSize=8;endSize=8;curved=1;exitX=0.63;exitY=0.99;exitDx=0;exitDy=0;exitPerimeter=0;entryX=0.5;entryY=0;entryDx=0;entryDy=0;" edge="1" parent="cdov_U2zmaKujMethuNc-13" source="cdov_U2zmaKujMethuNc-17" target="lMJsI6JxSjtZq9SAjWNh-7">
          <mxGeometry x="0.9329" y="14" width="160" relative="1" as="geometry">
            <mxPoint x="554" y="61" as="sourcePoint" />
            <mxPoint x="492" y="109" as="targetPoint" />
            <mxPoint as="offset" />
          </mxGeometry>
        </mxCell>
        <mxCell id="Jpr0yWLcm52v4dB1H-6q-34" value="DBMS" style="rounded=1;whiteSpace=wrap;html=1;" vertex="1" parent="cdov_U2zmaKujMethuNc-13">
          <mxGeometry x="41.5" y="164" width="120" height="60" as="geometry" />
        </mxCell>
        <mxCell id="Jpr0yWLcm52v4dB1H-6q-1" value="Request handler" style="rounded=1;whiteSpace=wrap;html=1;" vertex="1" parent="1">
          <mxGeometry x="217" y="84" width="120" height="60" as="geometry" />
        </mxCell>
        <mxCell id="Jpr0yWLcm52v4dB1H-6q-3" style="edgeStyle=orthogonalEdgeStyle;rounded=0;orthogonalLoop=1;jettySize=auto;html=1;entryX=0.5;entryY=0;entryDx=0;entryDy=0;" edge="1" parent="1" source="Jpr0yWLcm52v4dB1H-6q-1" target="cdov_U2zmaKujMethuNc-13">
          <mxGeometry relative="1" as="geometry" />
        </mxCell>
        <mxCell id="Jpr0yWLcm52v4dB1H-6q-7" value="" style="swimlane;startSize=0;" vertex="1" parent="1">
          <mxGeometry x="-32" y="-316" width="618" height="369" as="geometry">
            <mxRectangle x="-32" y="176" width="50" height="44" as="alternateBounds" />
          </mxGeometry>
        </mxCell>
        <mxCell id="Jpr0yWLcm52v4dB1H-6q-8" value="User interface (Web based)" style="text;html=1;align=center;verticalAlign=middle;resizable=0;points=[];autosize=1;strokeColor=none;fillColor=none;fontSize=16;" vertex="1" parent="Jpr0yWLcm52v4dB1H-6q-7">
          <mxGeometry x="12" width="213" height="31" as="geometry" />
        </mxCell>
        <mxCell id="Jpr0yWLcm52v4dB1H-6q-24" value="Service" style="rounded=1;whiteSpace=wrap;html=1;" vertex="1" parent="Jpr0yWLcm52v4dB1H-6q-7">
          <mxGeometry x="249" y="278" width="120" height="60" as="geometry" />
        </mxCell>
        <mxCell id="Jpr0yWLcm52v4dB1H-6q-25" value="Axios" style="rounded=1;whiteSpace=wrap;html=1;" vertex="1" parent="Jpr0yWLcm52v4dB1H-6q-7">
          <mxGeometry x="446" y="288" width="79" height="40" as="geometry" />
        </mxCell>
        <mxCell id="Jpr0yWLcm52v4dB1H-6q-26" value="" style="html=1;verticalAlign=bottom;labelBackgroundColor=none;endArrow=open;endFill=0;dashed=1;rounded=0;fontSize=12;startSize=8;endSize=8;curved=1;exitX=1;exitY=0.5;exitDx=0;exitDy=0;entryX=0;entryY=0.5;entryDx=0;entryDy=0;" edge="1" parent="Jpr0yWLcm52v4dB1H-6q-7" source="Jpr0yWLcm52v4dB1H-6q-24" target="Jpr0yWLcm52v4dB1H-6q-25">
          <mxGeometry x="0.6293" y="-14" width="160" relative="1" as="geometry">
            <mxPoint x="406" y="273" as="sourcePoint" />
            <mxPoint x="408" y="323" as="targetPoint" />
            <mxPoint as="offset" />
          </mxGeometry>
        </mxCell>
        <mxCell id="Jpr0yWLcm52v4dB1H-6q-28" value="Diagram" style="ellipse;whiteSpace=wrap;html=1;" vertex="1" parent="Jpr0yWLcm52v4dB1H-6q-7">
          <mxGeometry x="87" y="69" width="120" height="80" as="geometry" />
        </mxCell>
        <mxCell id="Jpr0yWLcm52v4dB1H-6q-29" value="Node (Block)" style="ellipse;whiteSpace=wrap;html=1;" vertex="1" parent="Jpr0yWLcm52v4dB1H-6q-7">
          <mxGeometry x="282" y="20" width="120" height="80" as="geometry" />
        </mxCell>
        <mxCell id="Jpr0yWLcm52v4dB1H-6q-30" value="Edge (Connection)" style="ellipse;whiteSpace=wrap;html=1;" vertex="1" parent="Jpr0yWLcm52v4dB1H-6q-7">
          <mxGeometry x="282" y="128" width="120" height="80" as="geometry" />
        </mxCell>
        <mxCell id="Jpr0yWLcm52v4dB1H-6q-32" value="" style="endArrow=open;endSize=12;dashed=1;html=1;rounded=0;exitX=1;exitY=0.5;exitDx=0;exitDy=0;entryX=0;entryY=0.5;entryDx=0;entryDy=0;" edge="1" parent="Jpr0yWLcm52v4dB1H-6q-7" source="Jpr0yWLcm52v4dB1H-6q-28" target="Jpr0yWLcm52v4dB1H-6q-29">
          <mxGeometry x="0.0275" y="12" width="160" relative="1" as="geometry">
            <mxPoint x="271" y="119" as="sourcePoint" />
            <mxPoint x="210" y="199" as="targetPoint" />
            <mxPoint as="offset" />
          </mxGeometry>
        </mxCell>
        <mxCell id="Jpr0yWLcm52v4dB1H-6q-33" value="" style="html=1;verticalAlign=bottom;labelBackgroundColor=none;endArrow=open;endFill=0;dashed=1;rounded=0;fontSize=12;startSize=8;endSize=8;curved=1;exitX=1;exitY=0.5;exitDx=0;exitDy=0;entryX=0;entryY=0.5;entryDx=0;entryDy=0;" edge="1" parent="Jpr0yWLcm52v4dB1H-6q-7" source="Jpr0yWLcm52v4dB1H-6q-28" target="Jpr0yWLcm52v4dB1H-6q-30">
          <mxGeometry x="0.6293" y="-14" width="160" relative="1" as="geometry">
            <mxPoint x="216" y="180" as="sourcePoint" />
            <mxPoint x="293" y="180" as="targetPoint" />
            <mxPoint as="offset" />
          </mxGeometry>
        </mxCell>
        <mxCell id="Jpr0yWLcm52v4dB1H-6q-36" value="&lt;div&gt;&lt;br&gt;&lt;/div&gt;Mysql database" style="strokeWidth=2;html=1;shape=mxgraph.flowchart.database;whiteSpace=wrap;" vertex="1" parent="1">
          <mxGeometry x="-216" y="340" width="60" height="60" as="geometry" />
        </mxCell>
        <mxCell id="Jpr0yWLcm52v4dB1H-6q-37" value="" style="endArrow=open;endSize=12;dashed=1;html=1;rounded=0;exitX=0;exitY=0.5;exitDx=0;exitDy=0;entryX=1;entryY=0.5;entryDx=0;entryDy=0;entryPerimeter=0;" edge="1" parent="1" source="Jpr0yWLcm52v4dB1H-6q-34" target="Jpr0yWLcm52v4dB1H-6q-36">
          <mxGeometry x="0.0275" y="12" width="160" relative="1" as="geometry">
            <mxPoint x="-29" y="403" as="sourcePoint" />
            <mxPoint x="-90" y="483" as="targetPoint" />
            <mxPoint as="offset" />
          </mxGeometry>
        </mxCell>
      </root>
    </mxGraphModel>
  </diagram>
</mxfile>
